<?xml version="1.0" standalone="no"?>
<!DOCTYPE svg PUBLIC "-//W3C//DTD SVG 20010904//EN"
 "http://www.w3.org/TR/2001/REC-SVG-20010904/DTD/svg10.dtd">
<svg version="1.0" xmlns="http://www.w3.org/2000/svg"
 width="820.000000pt" height="512.000000pt" viewBox="0 0 820.000000 512.000000"
 preserveAspectRatio="xMidYMid meet">

<g transform="translate(0.000000,512.000000) scale(0.100000,-0.100000)"
fill="#000000" stroke="none">
<path d="M4035 5109 c-50 -19 -92 -56 -114 -102 -18 -38 -21 -61 -21 -185 0
-114 -3 -142 -14 -142 -28 0 -173 -80 -224 -124 -121 -104 -208 -243 -237
-382 -19 -88 -19 -220 0 -308 19 -90 82 -218 139 -283 25 -28 46 -56 46 -62 0
-9 -376 -1008 -519 -1381 l-48 -125 -242 -3 -241 -2 0 45 0 45 -228 0 c-220 0
-231 -1 -273 -23 -64 -34 -104 -102 -103 -176 1 -62 18 -103 61 -143 56 -53
83 -58 323 -58 l220 0 0 50 0 50 201 0 c188 0 201 -1 194 -17 -4 -10 -74 -196
-156 -413 -165 -441 -175 -481 -145 -597 18 -72 52 -143 92 -194 l29 -36 0
-261 c0 -143 3 -258 7 -254 4 4 79 200 169 437 89 237 224 597 301 800 76 204
153 407 170 453 l31 82 264 0 263 0 0 -140 c0 -157 9 -189 60 -215 58 -30 130
-12 165 41 15 23 17 49 17 171 l-1 143 263 0 263 0 332 -883 c183 -485 337
-886 342 -892 6 -6 9 93 8 256 l-1 266 34 45 c74 97 110 231 91 341 -8 48
-136 399 -309 851 -6 14 12 16 195 16 l201 0 0 -50 0 -50 213 0 c123 0 229 5
252 11 57 16 119 83 134 147 22 88 -22 182 -102 221 -40 19 -60 21 -270 21
l-227 0 0 -45 0 -45 -242 2 -241 3 -279 735 c-153 404 -281 745 -284 757 -5
17 5 35 40 75 56 61 119 187 140 278 20 83 20 237 0 320 -34 145 -137 304
-254 392 -55 41 -183 108 -207 108 -10 0 -13 34 -13 143 0 131 -2 148 -23 188
-33 61 -89 99 -158 104 -29 3 -67 0 -84 -6z m197 -789 c73 -34 124 -85 160
-158 28 -57 33 -77 33 -142 0 -184 -140 -324 -325 -324 -130 0 -234 64 -290
178 -39 80 -48 154 -26 228 32 112 115 198 225 233 61 20 164 13 223 -15z m30
-1235 c50 -132 162 -428 248 -657 l158 -418 -219 0 c-187 0 -219 2 -220 15 -1
8 -3 24 -4 35 -1 11 -3 72 -4 135 -1 111 -2 116 -29 146 -53 59 -161 48 -197
-21 -11 -22 -15 -63 -15 -170 l0 -140 -224 0 -224 0 244 648 c134 356 246 653
249 660 3 9 25 12 76 10 l71 -3 90 -240z"/>
</g>
</svg>
